# xmcd
#
# Track frame offsets:
#	150
#	10817
#	20295
#	31439
#	41071
#	52450
#	63690
#	75983
#	85401
#	97819
#	107273
#	118731
#	130006
#	141323
#	156284
#	166409
#	177913
#	187523
#	199898
#	210999
#	224574
#	237954
#	248875
#	260522
#
# Disc length: 3633 seconds
#
# Revision: 1
# Processed by: cddbd v1.4PL0 Copyright (c) Steve Scherf et al.
# Submitted via: audiograbber 1.81.03
#
DISCID=4b0e2f18
DTITLE=Faron Young - Walk Tall - The Mercury Hit Singles 1963-75
DYEAR=2002
DGENRE=Country
TTITLE0=The Yellow Bandana.
TTITLE1=Nightmare.
TTITLE2=We've Got Something In Common
TTITLE3=You'll Drive Me Back (Into Her Arms Again).
TTITLE4=Keeping Up With The Joneses.  (With Margie Singleton )
TTITLE5=My Friend On The Right.
TTITLE6=Walk Tall.
TTITLE7=My Dreams.
TTITLE8=Unmitigated Gall.
TTITLE9=Wonderful World Of Woman.
TTITLE10=She Went A Little Bit Farther.
TTITLE11=I Just Came To Get My Baby.
TTITLE12=Wine Me Up.
TTITLE13=Your Time's Comin'.
TTITLE14=Occasional Wife.
TTITLE15=If I Ever Fall In Love (With A Honky Tonk Girl).
TTITLE16=Goin' Steady.
TTITLE17=Step Aside.
TTITLE18=Leavin' And Sayin' Goodbye.
TTITLE19=It's Four In The Morning.
TTITLE20=This Little Girl Of Mine.
TTITLE21=Just What I Had In Mind.
TTITLE22=Some Kind Of A Woman.
TTITLE23=Here I Am In Dallas.
EXTD=
EXTT0=
EXTT1=
EXTT2=
EXTT3=
EXTT4=
EXTT5=
EXTT6=
EXTT7=
EXTT8=
EXTT9=
EXTT10=
EXTT11=
EXTT12=
EXTT13=
EXTT14=
EXTT15=
EXTT16=
EXTT17=
EXTT18=
EXTT19=
EXTT20=
EXTT21=
EXTT22=
EXTT23=
PLAYORDER=
